<?xml version="1.0" encoding="UTF-8" standalone="no"?>
<!-- Created with Inkscape (http://www.inkscape.org/) -->

<svg
   width="1024"
   height="1024"
   viewBox="0 0 1024 1024"
   version="1.1"
   id="svg1"
   inkscape:version="1.4 (86a8ad7, 2024-10-11)"
   sodipodi:docname="AppIcon.svg"
   inkscape:export-filename="AppIcon.png"
   inkscape:export-xdpi="96"
   inkscape:export-ydpi="96"
   xmlns:inkscape="http://www.inkscape.org/namespaces/inkscape"
   xmlns:sodipodi="http://sodipodi.sourceforge.net/DTD/sodipodi-0.dtd"
   xmlns="http://www.w3.org/2000/svg"
   xmlns:svg="http://www.w3.org/2000/svg">
  <sodipodi:namedview
     id="namedview1"
     pagecolor="#ffffff"
     bordercolor="#000000"
     borderopacity="0.25"
     inkscape:showpageshadow="2"
     inkscape:pageopacity="0.0"
     inkscape:pagecheckerboard="0"
     inkscape:deskcolor="#d1d1d1"
     inkscape:document-units="px"
     inkscape:zoom="0.50898197"
     inkscape:cx="515.73536"
     inkscape:cy="469.56477"
     inkscape:window-width="1920"
     inkscape:window-height="1010"
     inkscape:window-x="-6"
     inkscape:window-y="-6"
     inkscape:window-maximized="1"
     inkscape:current-layer="layer1" />
  <defs
     id="defs1">
    <linearGradient
       id="swatch38"
       inkscape:swatch="solid">
      <stop
         style="stop-color:#00c0f8;stop-opacity:1;"
         offset="0"
         id="stop38" />
    </linearGradient>
    <clipPath
       clipPathUnits="userSpaceOnUse"
       id="clipPath15">
      <path
         id="path5"
         style="stroke-width:0.1;stroke-linecap:square;paint-order:markers fill stroke;stop-color:#000000"
         d="m 438.25066,553.76374 859.87054,0 v 201.39554 l -859.87054,0 z"
         sodipodi:nodetypes="ccccc" />
    </clipPath>
    <clipPath
       clipPathUnits="userSpaceOnUse"
       id="clipPath51">
      <path
         id="path51"
         style="stroke-width:0.0999999;stroke-linecap:square;paint-order:markers fill stroke;stop-color:#000000"
         d="m 1806.4991,-753.5228 h 1637.2646 v 66.90533 H 1806.4991 Z" />
    </clipPath>
    <clipPath
       clipPathUnits="userSpaceOnUse"
       id="clipPath5">
      <rect
         style="fill:#000000;stroke:#000000;stroke-width:0;stroke-linejoin:bevel;paint-order:stroke markers fill;stop-color:#000000"
         id="rect5-4"
         width="20"
         height="200"
         x="530"
         y="595" />
    </clipPath>
    <filter
       style="color-interpolation-filters:sRGB;"
       inkscape:label="Drop Shadow"
       id="filter24"
       x="0"
       y="0"
       width="1"
       height="1.0163517">
      <feFlood
         result="flood"
         in="SourceGraphic"
         flood-opacity="0.498039"
         flood-color="rgb(0,0,0)"
         id="feFlood23" />
      <feGaussianBlur
         result="blur"
         in="SourceGraphic"
         stdDeviation="0.000000"
         id="feGaussianBlur23" />
      <feOffset
         result="offset"
         in="blur"
         dx="0.000000"
         dy="6.000000"
         id="feOffset23" />
      <feComposite
         result="comp1"
         operator="in"
         in="flood"
         in2="offset"
         id="feComposite23" />
      <feComposite
         result="comp2"
         operator="over"
         in="SourceGraphic"
         in2="comp1"
         id="feComposite24" />
    </filter>
    <filter
       style="color-interpolation-filters:sRGB;"
       inkscape:label="Drop Shadow"
       id="filter26"
       x="0"
       y="0"
       width="1"
       height="1.0158768">
      <feFlood
         result="flood"
         in="SourceGraphic"
         flood-opacity="0.498039"
         flood-color="rgb(0,0,0)"
         id="feFlood24" />
      <feGaussianBlur
         result="blur"
         in="SourceGraphic"
         stdDeviation="0.000000"
         id="feGaussianBlur24" />
      <feOffset
         result="offset"
         in="blur"
         dx="0.000000"
         dy="6.000000"
         id="feOffset24" />
      <feComposite
         result="comp1"
         operator="in"
         in="flood"
         in2="offset"
         id="feComposite25" />
      <feComposite
         result="comp2"
         operator="over"
         in="SourceGraphic"
         in2="comp1"
         id="feComposite26" />
    </filter>
    <filter
       style="color-interpolation-filters:sRGB;"
       inkscape:label="Drop Shadow"
       id="filter29"
       x="0"
       y="0"
       width="1"
       height="1.0150208">
      <feFlood
         result="flood"
         in="SourceGraphic"
         flood-opacity="0.498039"
         flood-color="rgb(0,0,0)"
         id="feFlood28" />
      <feGaussianBlur
         result="blur"
         in="SourceGraphic"
         stdDeviation="0.000000"
         id="feGaussianBlur28" />
      <feOffset
         result="offset"
         in="blur"
         dx="0.000000"
         dy="6.000000"
         id="feOffset28" />
      <feComposite
         result="comp1"
         operator="in"
         in="flood"
         in2="offset"
         id="feComposite28" />
      <feComposite
         result="comp2"
         operator="over"
         in="SourceGraphic"
         in2="comp1"
         id="feComposite29" />
    </filter>
    <filter
       style="color-interpolation-filters:sRGB;"
       inkscape:label="Drop Shadow"
       id="filter3"
       x="0"
       y="0"
       width="1"
       height="1.0188096">
      <feFlood
         result="flood"
         in="SourceGraphic"
         flood-opacity="0.498039"
         flood-color="rgb(0,0,0)"
         id="feFlood2" />
      <feGaussianBlur
         result="blur"
         in="SourceGraphic"
         stdDeviation="0.000000"
         id="feGaussianBlur2" />
      <feOffset
         result="offset"
         in="blur"
         dx="0.000000"
         dy="6.000000"
         id="feOffset2" />
      <feComposite
         result="comp1"
         operator="in"
         in="flood"
         in2="offset"
         id="feComposite2" />
      <feComposite
         result="comp2"
         operator="over"
         in="SourceGraphic"
         in2="comp1"
         id="feComposite3" />
    </filter>
  </defs>
  <g
     inkscape:groupmode="layer"
     id="layer3"
     inkscape:label="background">
    <rect
       style="fill:#ff2c55;fill-opacity:1;stroke-width:1.73692;fill-rule:nonzero"
       id="rect1"
       width="1024"
       height="1024"
       x="-1024"
       y="-1024"
       transform="scale(-1)"
       inkscape:label="gradient" />
  </g>
  <g
     inkscape:label="text"
     inkscape:groupmode="layer"
     id="layer1">
    <g
       id="g1"
       transform="translate(0,2.8911754)">
      <path
         style="font-size:333.333px;font-family:'Arial Rounded MT Bold';-inkscape-font-specification:'Arial Rounded MT Bold, ';fill:#ffffff;stroke-width:6.46389"
         d="M 408.26354,844.33199 393.53463,805.61601 H 268.12857 l -14.72891,39.55763 q -8.62692,23.14541 -14.72889,31.35152 -6.10197,7.99569 -19.98923,7.99569 -11.78311,0 -20.83086,-8.62694 -9.04777,-8.62693 -9.04777,-19.5684 0,-6.31238 2.10414,-13.0456 2.10412,-6.7332 6.94363,-18.72674 l 78.90481,-200.31305 q 3.3666,-8.62693 7.99569,-20.62047 4.83949,-12.20394 10.09982,-20.19963 5.47074,-7.99568 14.09766,-12.83519 8.83734,-5.04991 21.67252,-5.04991 13.0456,0 21.67253,5.04991 8.83734,4.83951 14.09767,12.62478 5.47074,7.78528 9.04775,16.83303 3.78743,8.83734 9.46858,23.77666 l 80.58813,199.05057 q 9.46858,22.72459 9.46858,33.03482 0,10.73105 -9.04776,19.7788 -8.83734,8.83736 -21.46211,8.83736 -7.36446,0 -12.62477,-2.73538 -5.26033,-2.52495 -8.83734,-6.94363 -3.57703,-4.62907 -7.78528,-13.88724 -3.99785,-9.46859 -6.94362,-16.62261 z M 284.54077,758.69394 H 376.7016 L 330.20036,631.39416 Z"
         id="text1"
         aria-label="A"
         transform="matrix(0.96372693,0,0,0.96372693,365.18671,37.504444)" />
      <path
         id="text2-8"
         style="font-weight:bold;font-size:192px;font-family:Candara;-inkscape-font-specification:'Candara Bold';fill:#ffffff;fill-opacity:1;stroke:none;stroke-width:2.32652"
         inkscape:label="chinese"
         d="m 665.8418,549.73249 c -14.32219,0.0461 -28.64454,-9.3e-4 -42.9668,-0.002 v 37.59954 H 455.36523 v 57.08008 h 86.42579 c 10.66356,40.18596 28.39104,78.52498 52.41917,112.47365 6.78802,9.62199 14.05258,18.90809 21.73903,27.82908 -16.37383,13.28185 -33.71815,25.36879 -51.86719,36.09961 -1.6618,0.963 -3.48946,2.04973 -5.23219,3.03163 -17.85716,10.21447 -36.58108,19.10776 -55.81631,26.58584 -31.84757,11.90232 -47.03524,29.81759 -39.20177,49.29572 9.15366,22.76081 53.18339,18.67966 72.9356,9.84861 44.48412,-19.77242 85.57319,-46.64532 123.06957,-77.57808 0.98881,-0.81302 1.97469,-1.62928 2.95604,-2.4513 35.90229,29.65089 75.53644,55.14551 118.61203,73.05636 38.02074,15.57538 63.86526,10.50918 73.59105,-12.38609 6.95166,-16.36475 -16.21659,-39.4996 -30.14699,-44.00379 -4.65385,-1.49772 -9.32868,-3.06735 -13.8746,-4.68413 -33.14274,-11.72083 -65.1448,-27.24403 -93.60507,-48.00539 -3.07813,-2.24695 -6.16075,-4.59675 -9.08317,-6.91941 -0.91609,-0.72221 -1.82405,-1.45453 -2.72763,-2.19231 24.55981,-31.33639 44.52253,-66.51111 57.05061,-104.37825 3.87397,-11.67141 7.06699,-23.57059 9.51971,-35.62175 H 856.1875 V 615.87007 587.33003 H 686.93359 V 549.66458 Z M 710.5,644.41016 c -2.22948,8.27845 -5.00031,16.40539 -8.19141,24.36132 -0.408,0.97721 -0.89292,2.20684 -1.35035,3.27576 -6.52323,15.55906 -14.68669,30.39919 -23.92699,44.50354 -0.6622,0.98906 -1.38894,2.11293 -2.06612,3.10918 -4.5736,6.80611 -9.3952,13.44469 -14.42802,19.91816 -9.30193,-10.71122 -18.05182,-21.84378 -26.0467,-33.59529 -7.94989,-11.70676 -15.16543,-24.06413 -21.01333,-37.01836 -1.64127,-3.64686 -3.10996,-7.2058 -4.52833,-10.96646 -1.68006,-4.46449 -3.18582,-8.9957 -4.47805,-13.58785 z"
         transform="matrix(0.83608685,0,0,0.83608685,-179.64759,122.27741)"
         sodipodi:nodetypes="sccccccccccaccccaccccccccccccsccccccccccc" />
    </g>
    <rect
       style="fill:#ffffff;fill-opacity:1;stroke:none;stroke-width:6.26783;stroke-dasharray:none;stroke-opacity:1"
       id="rect3"
       width="452.79663"
       height="377.91104"
       x="285.60168"
       y="131.16782"
       rx="35"
       ry="35" />
    <path
       style="font-size:192px;font-family:Candara;-inkscape-font-specification:Candara;fill:#007aff;fill-opacity:1;stroke-width:9.59953"
       d="M 596.2362,336.90059 440.72324,426.7165 c -4.31982,2.5199 -8.69961,2.5199 -13.13942,0 -4.3198,-2.51988 -6.47971,-6.23971 -6.47971,-11.15948 V 235.74516 c 0,-5.03979 2.15991,-8.75961 6.47971,-11.1595 4.43981,-2.51989 8.8196,-2.57986 13.13942,-0.1799 l 155.51296,89.99593 c 4.43979,2.51988 6.65969,6.29971 6.65969,11.33949 0,4.91977 -2.2199,8.6396 -6.65969,11.15949 z"
       id="text3"
       aria-label="▶️"
       sodipodi:nodetypes="cccsscccssc" />
  </g>
</svg>
